# xmcd CD database file
#
# Track frame offsets:
#	150
#	38581
#	61265
#	89682
#	111079
#	143335
#	161587
#	173164
#	200533
#
# Disc length: 3009 seconds
#
# Revision: 0
# Processed by: cddbd v1.5.1PL2 Copyright (c) Steve Scherf et al.
# Submitted via: CDex 1.51
#
DISCID=700bbf09
DTITLE=Celano-Baggiani Group - Figuras
DYEAR=2005
DGENRE=Jazz
TTITLE0=Una tarde como aquellas
TTITLE1=Truchala
TTITLE2=Hacia un lugar
TTITLE3=Bakalaka
TTITLE4=Viejos Hallazgos
TTITLE5=Anchorena y mi infancia
TTITLE6=Viejo sur
TTITLE7=Viejos amigos
TTITLE8=Pa' la monada
EXTD=YEAR: 2005
EXTT0=
EXTT1=
EXTT2=
EXTT3=
EXTT4=
EXTT5=
EXTT6=
EXTT7=
EXTT8=
PLAYORDER=
